<?xml version="1.0" encoding="utf-8"?>
<!-- Generator: Adobe Illustrator 21.1.0, SVG Export Plug-In . SVG Version: 6.00 Build 0)  -->
<svg version="1.1" id="Layer_1" xmlns="http://www.w3.org/2000/svg" xmlns:xlink="http://www.w3.org/1999/xlink" x="0px" y="0px"
	 viewBox="0 0 20 13" style="enable-background:new 0 0 20 13;" xml:space="preserve" width="20px" height="13px">
<style type="text/css">
	.st0{fill:#FFFFFF;}
</style>
<path class="st0" d="M6.4,5.2v2.5c0,0,2.4,0,3.4,0c-0.5,1.6-1.4,2.5-3.4,2.5c-2.1,0-3.7-1.7-3.7-3.8c0-2.1,1.6-3.8,3.7-3.8
	c1.1,0,1.8,0.4,2.5,0.9c0.5-0.5,0.5-0.6,1.8-1.9C9.5,0.8,8,0.1,6.4,0.1C2.8,0.1,0,3,0,6.5c0,3.5,2.8,6.4,6.4,6.4
	c5.2,0,6.5-4.6,6.1-7.6C11.2,5.2,6.4,5.2,6.4,5.2z M16.2,6.9v2.3h1.6V6.9H20V5.4h-2.2V3.2h-1.6v2.2H14v1.6H16.2z"/>
</svg>
